<svg xmlns="http://www.w3.org/2000/svg" xmlns:xlink="http://www.w3.org/1999/xlink" viewBox="0 0 286 210.23"><defs><style>.cls-1{fill:url(#未命名的渐变_1031);}.cls-2{fill:url(#未命名的渐变_862);}.cls-3{fill:url(#未命名的渐变_1230);}.cls-4{opacity:0.45;fill:url(#未命名的渐变_877);}.cls-5{fill:url(#未命名的渐变_855);}.cls-6{fill:url(#未命名的渐变_1080);}.cls-7{opacity:0.42;fill:url(#未命名的渐变_1218);}</style><linearGradient id="未命名的渐变_1031" y1="105.12" x2="286" y2="105.12" gradientUnits="userSpaceOnUse"><stop offset="0" stop-color="#d6caff"/><stop offset="1" stop-color="#30a4e1"/></linearGradient><linearGradient id="未命名的渐变_862" x1="14.8" y1="199" x2="71.53" y2="100.75" gradientUnits="userSpaceOnUse"><stop offset="0" stop-color="#d6caff"/><stop offset="1" stop-color="#6466e1"/></linearGradient><linearGradient id="未命名的渐变_1230" x1="36.38" y1="81.47" x2="250.38" y2="-42.08" gradientUnits="userSpaceOnUse"><stop offset="0" stop-color="#d6caff"/><stop offset="1" stop-color="#46abe1"/></linearGradient><linearGradient id="未命名的渐变_877" x1="143" y1="101.36" x2="225" y2="101.36" gradientUnits="userSpaceOnUse"><stop offset="0" stop-color="#4941a3"/><stop offset="1" stop-color="#b765a6" stop-opacity="0"/></linearGradient><linearGradient id="未命名的渐变_855" x1="41.38" y1="14.66" x2="90.99" y2="88.73" gradientUnits="userSpaceOnUse"><stop offset="0" stop-color="#e2d6ff"/><stop offset="0.61" stop-color="#d6caff" stop-opacity="0"/></linearGradient><linearGradient id="未命名的渐变_1080" x1="214.66" y1="188.82" x2="270.75" y2="91.67" gradientUnits="userSpaceOnUse"><stop offset="0" stop-color="#86b8f1"/><stop offset="1" stop-color="#6466e1"/></linearGradient><linearGradient id="未命名的渐变_1218" x1="289.98" y1="21.01" x2="244.21" y2="94.95" gradientUnits="userSpaceOnUse"><stop offset="0" stop-color="#3a71ba"/><stop offset="0.15" stop-color="#3a72bb" stop-opacity="0.98"/><stop offset="0.29" stop-color="#3a76be" stop-opacity="0.91"/><stop offset="0.44" stop-color="#3b7bc2" stop-opacity="0.81"/><stop offset="0.59" stop-color="#3b84c8" stop-opacity="0.65"/><stop offset="0.74" stop-color="#3c8ed0" stop-opacity="0.46"/><stop offset="0.88" stop-color="#3d9bda" stop-opacity="0.22"/><stop offset="1" stop-color="#3ea7e3" stop-opacity="0"/></linearGradient></defs><g id="图层_2" data-name="图层 2"><g id="图层_1-2" data-name="图层 1"><polygon class="cls-1" points="286 19.62 251.74 0 143 63.12 34.26 0 0 19.62 0 190.62 34.26 210.23 68.97 190.09 68.97 99.38 109 122.62 143 142.12 177 122.62 217.03 99.38 217.03 190.09 251.74 210.23 286 190.62 286 19.62"/><polygon class="cls-2" points="34.76 79.53 68.97 99.38 68.97 190.09 34.26 210.23 34.76 79.53"/><polygon class="cls-3" points="1.01 20.2 143 102.62 286 19.62 251.74 0 143 63.12 34.26 0 1.01 20.2"/><polygon class="cls-4" points="143 102.62 143 142.12 225 94.12 215.38 60.61 143 102.62"/><polygon class="cls-5" points="102.99 39.9 34.26 0 0 19.62 90.23 71.99 102.99 39.9"/><polygon class="cls-6" points="217.03 99.38 217.03 190.09 251.74 210.23 251.46 80.53 217 99.12 217 99.4 217.03 99.38"/><polygon class="cls-7" points="201 69.12 286 19.62 286 123.07 251.74 124.71 251.46 80.53 216 99.98 201 69.12"/></g></g></svg>