<svg xmlns="http://www.w3.org/2000/svg" xmlns:xlink="http://www.w3.org/1999/xlink" viewBox="0 0 1008.29 210.23"><defs><style>.cls-1{fill:url(#未命名的渐变_532);}.cls-2{fill:url(#未命名的渐变_713);}.cls-3{fill:url(#未命名的渐变_532-2);}.cls-4,.cls-7{opacity:0.45;}.cls-4{fill:url(#未命名的渐变_745);}.cls-5{fill:url(#未命名的渐变_565);}.cls-6{fill:url(#未命名的渐变_713-2);}.cls-7{fill:url(#未命名的渐变_1087);}.cls-8{fill:#45d4ff;}.cls-9{fill:#828b99;}</style><linearGradient id="未命名的渐变_532" y1="105.12" x2="286" y2="105.12" gradientUnits="userSpaceOnUse"><stop offset="0" stop-color="#45d4ff"/><stop offset="1" stop-color="#c170cd"/></linearGradient><linearGradient id="未命名的渐变_713" x1="14.8" y1="199" x2="71.53" y2="100.75" gradientUnits="userSpaceOnUse"><stop offset="0" stop-color="#45d4ff"/><stop offset="1" stop-color="#3170cd"/></linearGradient><linearGradient id="未命名的渐变_532-2" x1="36.38" y1="81.47" x2="250.38" y2="-42.08" xlink:href="#未命名的渐变_532"/><linearGradient id="未命名的渐变_745" x1="143" y1="101.36" x2="225" y2="101.36" gradientUnits="userSpaceOnUse"><stop offset="0" stop-color="#a45ba3"/><stop offset="1" stop-color="#b765a6" stop-opacity="0"/></linearGradient><linearGradient id="未命名的渐变_565" x1="41.38" y1="14.66" x2="90.99" y2="88.73" gradientUnits="userSpaceOnUse"><stop offset="0" stop-color="#2ee8ff"/><stop offset="0.61" stop-color="#2bd8a9" stop-opacity="0"/></linearGradient><linearGradient id="未命名的渐变_713-2" x1="214.66" y1="188.82" x2="270.75" y2="91.67" xlink:href="#未命名的渐变_713"/><linearGradient id="未命名的渐变_1087" x1="287.81" y1="25.07" x2="221.63" y2="127.93" gradientUnits="userSpaceOnUse"><stop offset="0" stop-color="#542653"/><stop offset="0.23" stop-color="#6e3769" stop-opacity="0.74"/><stop offset="0.74" stop-color="#a35895" stop-opacity="0.21"/><stop offset="1" stop-color="#b765a6" stop-opacity="0"/></linearGradient></defs><g id="图层_2" data-name="图层 2"><g id="图层_1-2" data-name="图层 1"><polygon class="cls-1" points="286 19.62 251.74 0 143 63.12 34.26 0 0 19.62 0 190.62 34.26 210.23 68.97 190.09 68.97 99.38 109 122.62 143 142.12 177 122.62 217.03 99.38 217.03 190.09 251.74 210.23 286 190.62 286 19.62"/><polygon class="cls-2" points="34.76 79.53 68.97 99.38 68.97 190.09 34.26 210.23 34.76 79.53"/><polygon class="cls-3" points="1.01 20.2 143 102.62 286 19.62 251.74 0 143 63.12 34.26 0 1.01 20.2"/><polygon class="cls-4" points="143 102.62 143 142.12 225 94.12 215.38 60.61 143 102.62"/><polygon class="cls-5" points="102.99 39.9 34.26 0 0 19.62 90.23 71.99 102.99 39.9"/><polygon class="cls-6" points="217.03 99.38 217.03 190.09 251.74 210.23 251.46 80.53 217 99.12 217 99.4 217.03 99.38"/><polygon class="cls-7" points="177.5 83.53 286 19.62 286 140.86 251.74 132.14 251.46 80.53 209.25 103.74 177.5 83.53"/><path class="cls-8" d="M391,83.31h5.54a8.84,8.84,0,0,1,8.84,8.85v70.91a8.85,8.85,0,0,0,8.85,8.85h29.4a8.85,8.85,0,0,1,8.85,8.85v.14a8.85,8.85,0,0,1-8.85,8.85H391a8.85,8.85,0,0,1-8.85-8.85V92.16A8.85,8.85,0,0,1,391,83.31Z"/><path class="cls-8" d="M477.68,83.31h10.89a8.83,8.83,0,0,1,8.22,5.58l17.57,44.19c2.51,6.62,4.71,13.67,7.06,20.57h.79c2.51-6.9,4.55-14,7.06-20.57L546.39,89a8.83,8.83,0,0,1,8.25-5.65h10.84a8.84,8.84,0,0,1,8.84,8.85v88.75a8.84,8.84,0,0,1-8.84,8.85H562a8.85,8.85,0,0,1-8.85-8.85v-35.6c0-10.07,1.73-24.89,2.83-35h-.63l-9.42,25-15.67,39.18a8.84,8.84,0,0,1-8.21,5.56h-1.39a8.84,8.84,0,0,1-8.2-5.54l-15.82-39.2-9.26-25h-.63c1.1,10.07,3,24.89,3,35v35.6a8.85,8.85,0,0,1-8.85,8.85h-3.18a8.85,8.85,0,0,1-8.85-8.85V92.16A8.85,8.85,0,0,1,477.68,83.31Z"/><path class="cls-9" d="M607.81,83.31H661.7a8.85,8.85,0,0,1,8.85,8.85h0A8.84,8.84,0,0,1,661.7,101H631.05a8.85,8.85,0,0,0-8.85,8.85v10.07a8.85,8.85,0,0,0,8.85,8.85h23.59a8.84,8.84,0,0,1,8.85,8.84v.15a8.84,8.84,0,0,1-8.85,8.84H631.05a8.85,8.85,0,0,0-8.85,8.85v25.46a8.85,8.85,0,0,1-8.85,8.85h-5.54a8.84,8.84,0,0,1-8.84-8.85V92.16A8.84,8.84,0,0,1,607.81,83.31Z"/><path class="cls-9" d="M695.72,83.31h5.54a8.85,8.85,0,0,1,8.85,8.85v70.91a8.84,8.84,0,0,0,8.84,8.85h29.4a8.85,8.85,0,0,1,8.85,8.85v.14a8.85,8.85,0,0,1-8.85,8.85H695.72a8.85,8.85,0,0,1-8.85-8.85V92.16A8.85,8.85,0,0,1,695.72,83.31Z"/><path class="cls-9" d="M761.75,136.1c0-34.66,21.2-54.8,52-54.8s52,20.28,52,54.8-21.19,55.67-52,55.67S761.75,170.63,761.75,136.1Zm80.22,0c0-22.87-11-36.53-28.26-36.53s-28.25,13.66-28.25,36.53,11,37.26,28.25,37.26S842,158.83,842,136.1Z"/><path class="cls-9" d="M883.48,83.31h5.39a8.85,8.85,0,0,1,8.71,7.3l8,44.63c1.73,11.22,3.62,22.58,5.34,33.95h.63c2.36-11.37,4.87-22.87,7.38-33.95l11.78-45.31a8.84,8.84,0,0,1,8.56-6.62h6.1a8.84,8.84,0,0,1,8.56,6.62l11.78,45.31c2.51,10.93,4.87,22.44,7.38,33.95h.78c1.73-11.51,3.46-22.87,5.18-33.95l7.82-44.61a8.86,8.86,0,0,1,8.72-7.32h3.89a8.84,8.84,0,0,1,8.67,10.6l-17.93,88.75a8.84,8.84,0,0,1-8.67,7.1H966.79A8.85,8.85,0,0,1,958.2,183l-11.37-45.93c-1.88-8.34-3.61-16.54-5-24.6h-.63c-1.57,8.06-3.14,16.26-5,24.6L925.08,183a8.85,8.85,0,0,1-8.6,6.77H902.2a8.84,8.84,0,0,1-8.65-7L874.83,94A8.84,8.84,0,0,1,883.48,83.31Z"/></g></g></svg>