<svg xmlns="http://www.w3.org/2000/svg" xmlns:xlink="http://www.w3.org/1999/xlink" viewBox="0 0 286 210.23"><defs><style>.cls-1{fill:url(#未命名的渐变_532);}.cls-2{fill:url(#未命名的渐变_713);}.cls-3{fill:url(#未命名的渐变_532-2);}.cls-4,.cls-7{opacity:0.45;}.cls-4{fill:url(#未命名的渐变_745);}.cls-5{fill:url(#未命名的渐变_565);}.cls-6{fill:url(#未命名的渐变_713-2);}.cls-7{fill:url(#未命名的渐变_1087);}</style><linearGradient id="未命名的渐变_532" y1="105.12" x2="286" y2="105.12" gradientUnits="userSpaceOnUse"><stop offset="0" stop-color="#45d4ff"/><stop offset="1" stop-color="#c170cd"/></linearGradient><linearGradient id="未命名的渐变_713" x1="14.8" y1="199" x2="71.53" y2="100.75" gradientUnits="userSpaceOnUse"><stop offset="0" stop-color="#45d4ff"/><stop offset="1" stop-color="#3170cd"/></linearGradient><linearGradient id="未命名的渐变_532-2" x1="36.38" y1="81.47" x2="250.38" y2="-42.08" xlink:href="#未命名的渐变_532"/><linearGradient id="未命名的渐变_745" x1="143" y1="101.36" x2="225" y2="101.36" gradientUnits="userSpaceOnUse"><stop offset="0" stop-color="#a45ba3"/><stop offset="1" stop-color="#b765a6" stop-opacity="0"/></linearGradient><linearGradient id="未命名的渐变_565" x1="41.38" y1="14.66" x2="90.99" y2="88.73" gradientUnits="userSpaceOnUse"><stop offset="0" stop-color="#2ee8ff"/><stop offset="0.61" stop-color="#2bd8a9" stop-opacity="0"/></linearGradient><linearGradient id="未命名的渐变_713-2" x1="214.66" y1="188.82" x2="270.75" y2="91.67" xlink:href="#未命名的渐变_713"/><linearGradient id="未命名的渐变_1087" x1="287.81" y1="25.07" x2="221.63" y2="127.93" gradientUnits="userSpaceOnUse"><stop offset="0" stop-color="#542653"/><stop offset="0.23" stop-color="#6e3769" stop-opacity="0.74"/><stop offset="0.74" stop-color="#a35895" stop-opacity="0.21"/><stop offset="1" stop-color="#b765a6" stop-opacity="0"/></linearGradient></defs><g id="图层_2" data-name="图层 2"><g id="图层_1-2" data-name="图层 1"><polygon class="cls-1" points="286 19.62 251.74 0 143 63.12 34.26 0 0 19.62 0 190.62 34.26 210.23 68.97 190.09 68.97 99.38 109 122.62 143 142.12 177 122.62 217.03 99.38 217.03 190.09 251.74 210.23 286 190.62 286 19.62"/><polygon class="cls-2" points="34.76 79.53 68.97 99.38 68.97 190.09 34.26 210.23 34.76 79.53"/><polygon class="cls-3" points="1.01 20.2 143 102.62 286 19.62 251.74 0 143 63.12 34.26 0 1.01 20.2"/><polygon class="cls-4" points="143 102.62 143 142.12 225 94.12 215.38 60.61 143 102.62"/><polygon class="cls-5" points="102.99 39.9 34.26 0 0 19.62 90.23 71.99 102.99 39.9"/><polygon class="cls-6" points="217.03 99.38 217.03 190.09 251.74 210.23 251.46 80.53 217 99.12 217 99.4 217.03 99.38"/><polygon class="cls-7" points="177.5 83.53 286 19.62 286 140.86 251.74 132.14 251.46 80.53 209.25 103.74 177.5 83.53"/></g></g></svg>